<svg width="17" height="10" viewBox="0 0 17 10" fill="none" xmlns="http://www.w3.org/2000/svg">
<path d="M1.70675 10H5.17342C5.65008 10 6.04008 9.625 6.04008 9.16667C6.04008 8.70833 5.65008 8.33333 5.17342 8.33333H1.70675C1.23009 8.33333 0.840088 8.70833 0.840088 9.16667C0.840088 9.625 1.23009 10 1.70675 10ZM0.840088 0.833333C0.840088 1.29167 1.23009 1.66667 1.70675 1.66667H15.5734C16.0501 1.66667 16.4401 1.29167 16.4401 0.833333C16.4401 0.375 16.0501 0 15.5734 0H1.70675C1.23009 0 0.840088 0.375 0.840088 0.833333ZM1.70675 5.83333H10.3734C10.8501 5.83333 11.2401 5.45833 11.2401 5C11.2401 4.54167 10.8501 4.16667 10.3734 4.16667H1.70675C1.23009 4.16667 0.840088 4.54167 0.840088 5C0.840088 5.45833 1.23009 5.83333 1.70675 5.83333Z" fill="black"/>
</svg>
